<?xml version="1.0" standalone="no"?><!DOCTYPE svg PUBLIC "-//W3C//DTD SVG 1.1//EN" "http://www.w3.org/Graphics/SVG/1.1/DTD/svg11.dtd"><svg t="1571628851439" class="icon" viewBox="0 0 1024 1024" version="1.1" xmlns="http://www.w3.org/2000/svg" p-id="4326" xmlns:xlink="http://www.w3.org/1999/xlink" width="16" height="16"><defs><style type="text/css"></style></defs><path d="M362.155 142.274c77.032-8.877 123.093 33.247 134.818 79.314 55.285 217.235-303.745 227.484-245.846 0 7.655-30.08 43.298-71.497 111.028-79.314z" p-id="4327" fill="#d81e06"></path><path d="M639.715 142.274c60.238-7.251 115.939 19.45 134.824 71.384 33.318 91.641-41.826 207.977-166.545 174.461-77.675-20.878-103.161-144.083-55.511-206.196 18.928-24.666 53.334-35.55 87.232-39.649zM155.964 348.469c192.558-48.033 196.629 227.766 55.514 245.845-147.686 18.915-212.67-206.647-55.514-245.845z" p-id="4328" fill="#d81e06"></path><path d="M806.26 348.469c26.864-6.601 50.082-12.977 71.37-7.93 112.823 26.744 115.671 236.389-15.86 253.775-139.044 18.377-217.533-205.982-55.51-245.845z" p-id="4329" fill="#d81e06"></path><path d="M758.68 768.776c-47.396 161.923-472.058 155.985-491.692-7.931-21.896-182.786 117.417-423.967 309.285-364.795 121.073 37.332 182.399 196.851 182.407 372.726z" p-id="4330" fill="#d81e06"></path></svg>