<?xml version="1.0" standalone="no"?><!DOCTYPE svg PUBLIC "-//W3C//DTD SVG 1.1//EN" "http://www.w3.org/Graphics/SVG/1.1/DTD/svg11.dtd"><svg t="1571641533199" class="icon" viewBox="0 0 1117 1024" version="1.1" xmlns="http://www.w3.org/2000/svg" p-id="5690" xmlns:xlink="http://www.w3.org/1999/xlink" width="17.453125" height="16"><defs><style type="text/css"></style></defs><path d="M523.170909 892.276364c9.588364 4.747636 38.167273 4.282182 48.965818-1.768728l5.864728-2.792727c3.537455-1.582545 10.891636-5.399273 19.921454-10.24 19.735273-10.891636 40.96-23.552 62.836364-37.794909a1104.337455 1104.337455 0 0 0 194.187636-162.164364 1030.237091 1030.237091 0 0 0 152.482909-204.986181c59.578182-105.751273 39.842909-262.237091-48.965818-353.745455a233.472 233.472 0 0 0-337.733818 0l-77.544727 80.058182-33.419637-34.536727-44.032-45.428364a233.658182 233.658182 0 0 0-337.92 0C38.632727 210.571636 21.597091 351.232 82.199273 479.418182c41.704727 87.970909 103.610182 169.053091 183.854545 242.036363a1037.125818 1037.125818 0 0 0 232.075637 158.999273c10.053818 4.840727 16.290909 7.819636 21.876363 10.24l2.978909 1.582546z" fill="#FF5555" p-id="5691"></path></svg>