<?xml version="1.0" standalone="no"?><!DOCTYPE svg PUBLIC "-//W3C//DTD SVG 1.1//EN" "http://www.w3.org/Graphics/SVG/1.1/DTD/svg11.dtd"><svg t="1571623187704" class="icon" viewBox="0 0 1024 1024" version="1.1" xmlns="http://www.w3.org/2000/svg" p-id="2606" width="32" height="32" xmlns:xlink="http://www.w3.org/1999/xlink"><defs><style type="text/css"></style></defs><path d="M798.986671 680.585155c-1.01831-1.523967-2.162534-3.172849-3.430674-4.94065-1.25415-1.760806-4.046257-5.937974-8.355335-12.535501-4.310078-6.594529-8.357334-13.05315-12.154759-19.366869-3.784434-6.319715-8.474254-14.427218-14.045477-24.308519-5.571223-9.879302-10.629793-19.504776-15.189701-28.866229-4.545918-9.368648-9.229742-19.74861-14.045477-31.133891-4.80874-11.392276-8.862991-22.277896-12.154759-32.661855-3.283774-10.386958-5.938973-21.275575-7.961602-32.660856-2.030623-11.392276-3.041938-22.148983-3.041938-32.273119 0-59.751289-11.517191-107.59585-34.563566-143.531286-23.033383-35.933637-52.781014-60.749612-89.229303-74.438331l0-11.395274c0-20.254268-7.095189-37.470395-21.266581-51.644785-14.176388-14.176388-31.389718-21.262584-51.63679-21.262584-20.261663 0-37.473993 7.086196-51.65138 21.262584-14.178387 14.178387-21.259586 31.390717-21.259586 51.644785l0 11.395274c-36.449687 13.674729-66.196519 38.485707-89.243293 74.438331-23.033383 35.949626-34.549975 83.795986-34.549975 143.531286 0 12.653421-1.642486 26.44507-4.933655 41.381943-3.284773 14.941869-7.470335 28.989345-12.540897 42.141228-5.071961 13.159078-11.01793 26.836805-17.837306 41.028183-6.819376 14.18938-13.152483 26.344139-18.979532 36.448288-5.834444 10.111145-11.780013 19.98545-17.836907 29.622916-6.057293 9.644461-10.242056 16.233993-12.541497 19.755606-2.299441 3.533604-4.198154 6.069885-5.683147 7.607842-4.059648 6.082876-5.321392 12.666412-3.796826 19.761602 1.523367 7.095189 5.570623 12.402591 12.15316 15.937195 6.583536 3.534604 15.563848 8.094512 26.949128 13.685721 11.392676 5.591209 32.152201 13.940548 62.294165 25.056012 30.128573 11.109468 59.364151 19.722628 87.705736 25.838482 5.570223 16.701676 13.4213 31.390717 23.545036 44.057929 10.124536 12.665413 21.897154 22.546713 35.312058 29.621716 13.408909 7.075203 27.718207 10.622798 42.913705 10.64878 22.783553 0 43.280456-7.724763 61.51909-23.164095 18.223644-15.438533 31.632553-35.817716 40.239518-61.144344 17.723983-4.053252 35.948627-8.980911 54.678728-14.800965 18.730301-5.814058 34.549575-11.128455 47.459622-15.938194 12.916243-4.815735 25.700575-10.006216 38.352997-15.583434 12.65442-5.571223 21.261585-9.486568 25.833485-11.760027 4.5729-2.273459 8.119495-4.165176 10.641785-5.690142 3.047934-2.022629 5.703133-4.426998 7.976592-7.21311 2.265464-2.785112 3.659519-5.695139 4.178167-8.724085 0.498662-1.524966 0.754488-3.047934 0.754488-4.5729l0-4.565904-1.529963-3.034942c0-1.524966-0.255827-2.917022-0.755488-4.178167-0.505657-1.267141-1.26814-2.411365-2.28645-3.429675l0-0.045969L798.986671 680.585155 798.986671 680.585155zM487.60219 232.493162c0-6.576541 2.40477-12.27168 7.220105-17.084417 4.810339-4.809739 10.505477-7.217107 17.088814-7.217107 6.568547 0 12.265684 2.407368 17.073424 7.217107 4.815735 4.812737 7.221104 10.507876 7.221104 17.084417l0 0.755488c-2.023628 0-3.922341-0.127913-5.684146-0.387737-1.759807-0.258825-3.415684-0.390735-4.939651-0.390735l-22.009078 0c-5.077557 0-10.386358 0.252829-15.94359 0.75249l0-0.75249L487.60219 232.493162zM511.911108 815.750113c-17.22672 0-31.916361-8.861992-44.063525-26.587973 15.694359 1.523967 30.384799 2.279455 44.063525 2.279455 13.670731 0 28.359772-0.755488 44.048935-2.279455-5.564227 8.101507-12.15376 14.55813-19.754606 19.367869C528.603791 813.345744 520.510278 815.750113 511.911108 815.750113L511.911108 815.750113z" p-id="2607"></path></svg>