<?xml version="1.0" standalone="no"?><!DOCTYPE svg PUBLIC "-//W3C//DTD SVG 1.1//EN" "http://www.w3.org/Graphics/SVG/1.1/DTD/svg11.dtd"><svg t="1571037730784" class="icon" viewBox="0 0 1250 1024" version="1.1" xmlns="http://www.w3.org/2000/svg" p-id="10390" xmlns:xlink="http://www.w3.org/1999/xlink" width="39.0625" height="32"><defs><style type="text/css"></style></defs><path d="M590.576735 491.908951c-135.560955 0-245.954476-110.39352-245.954476-245.954475 0-135.703952 110.39352-245.954476 245.954476-245.954476 135.703952 0 245.954476 110.39352 245.954476 245.954476 0 135.703952-110.39352 245.954476-245.954476 245.954475z m0-449.867895c-112.395475 0-203.91342 91.517944-203.91342 203.91342s91.517944 203.91342 203.91342 203.91342 203.91342-91.517944 203.91342-203.91342S702.972211 42.041056 590.576735 42.041056zM1018.709119 1024c-11.58274 0-21.020528-9.437788-21.020528-21.020528 0-231.08281-178.031001-419.123586-396.959084-419.123586-218.928083 0-396.959084 188.040776-396.959084 419.123586 0 11.58274-9.437788 21.020528-21.020528 21.020528s-21.020528-9.437788-21.020528-21.020528c0-254.248289 196.906577-461.164642 439.00014-461.164642s439.00014 206.916352 439.00014 461.164642c0 11.58274-9.437788 21.020528-21.020528 21.020528z" fill="#d81e06" p-id="10391"></path></svg>